{"title":"Throat Fucks 5 XXX  All Disc **[NEW]** 01 September 2014 ","uid":10945422,"size":3176283249,"categoryP":"porn","categoryS":"movies","magnet":"?xt=urn:btih:56a18ea021afc8f93ec1618920f0204989f1d095&amp;dn=Throat+Fucks+5+XXX++All+Disc+%2A%2A%5BNEW%5D%2A%2A+01+September+2014+&amp;tr=udp%3A%2F%2Ftracker.openbittorrent.com%3A80&amp;tr=udp%3A%2F%2Fopen.demonii.com%3A1337&amp;tr=udp%3A%2F%2Ftracker.coppersurfer.tk%3A6969&amp;tr=udp%3A%2F%2Fexodus.desync.com%3A6969","seeders":0,"leechers":5,"uploader":"iH2OSO4","files":-1,"time":1409594266,"description":"Throat Fucks 5 XXX **[NEW]** 01 September 2014 \n\nSOURCE :  &lt;a href=&quot; http://nuscotower.com/i/th_542.html&quot; rel=&quot;nofollow&quot; target=&quot;_NEW&quot;&gt; http://nuscotower.com/i/th_542.html&lt;/a&gt;\n\nIn director Jonni Darkko's 'Throat Fucks 5,' the nine gorgeous, glamorous sluts of his multi-racial cast take graphic, messy face poundings. Throat Fucks # 5 movie These girls love sucking cock to the extreme! Big dildos and stiff dicks probe and pump, creating drooling, gagging slobber, and the ladies are rewarded with creamy facials and mouthfuls of sperm. Throat Fucks # 5 adult DVD Tattooed glamour queen Alexa Aimes services three cocks (and a banana!), and ends up showered in splooge. Throat Fucks # 5 buy Thick, exotic Eden Alexander masturbates with a big vibrator as Ike Diezel uses her pretty face for his own pleasure. Throat Fucks # 5 porn Hot MILF Shayla LaVeaux, an experienced oral slut, earns a sloppy faceful of cum with her ball-worship and dirty talk. Throat Fucks # 5 DVD video Adorable, nasty brunette Gabriella Paltrova chokes on an inflatable dildo and enjoys playing with a goblet full of cum and gag spit. Throat Fucks # 5 movie Zoey Monroe, Meiko Askara, Tiffany Doll, Mia Rider and Gaia all wallow in spit and sperm!\n\nSOURCE :  &lt;a href=&quot; http://nuscotower.com/i/th_542.html&quot; rel=&quot;nofollow&quot; target=&quot;_NEW&quot;&gt; http://nuscotower.com/i/th_542.html&lt;/a&gt;\n\nGeneral\nThroat.Fucks.5.DiSC.1.And.2.XXX.2014.DVDRip-eUDOXiU - 1.mp4\nFormat                           : MPEG-4\nFormat profile                   : Base Media\nCodec ID                         : isom\nFile size                        : 1.67 GiB\nDuration                         : 2h 22mn\nOverall bit rate                 : 1 669 Kbps\nEncoded date                     : UTC 2014-09-01 08:31:00\nTagged date                      : UTC 2014-09-01 08:31:00\n\nVideo\nID                               : 1\nFormat                           : MPEG-4 Visual\nFormat profile                   : Simple@L1\nFormat settings, BVOP            : No\nFormat settings, QPel            : No\nFormat settings, GMC             : No warppoints\nFormat settings, Matrix          : Default (H.263)\nCodec ID                         : 20\nDuration                         : 2h 22mn\nBit rate mode                    : Variable\nBit rate                         : 1 536 Kbps\nMaximum bit rate                 : 2 854 Kbps\nWidth                            : 856 pixels\nHeight                           : 480 pixels\nDisplay aspect ratio             : 16:9\nFrame rate mode                  : Constant\nFrame rate                       : 23.976 fps\nColor space                      : YUV\nChroma subsampling               : 4:2:0\nBit depth                        : 8 bits\nScan type                        : Progressive\nCompression mode                 : Lossy\nBits/(Pixel*Frame)               : 0.156\nStream size                      : 1.53 GiB (92%)\nWriting library                  : Lavc53.8.0\nEncoded date                     : UTC 2014-09-01 08:31:00\nTagged date                      : UTC 2014-09-01 08:32:58\n\nAudio\nID                               : 2\nFormat                           : AAC\nFormat/Info                      : Advanced Audio Codec\nFormat profile                   : LC\nCodec ID                         : 40\nDuration                         : 2h 22mn\nBit rate mode                    : Variable\nBit rate                         : 132.3 Kbps\nMaximum bit rate                 : 176 Kbps\nChannel(s)                       : 2 channels\nChannel positions                : Front: L R\nSampling rate                    : 44.1 KHz\nCompression mode                 : Lossy\nStream size                      : 133 MiB (8%)\nEncoded date                     : UTC 2014-09-01 08:32:19\nTagged date                      : UTC 2014-09-01 08:32:58\n\n///////////////\n\nGeneral\nThroat.Fucks.5.DiSC.1.And.2.XXX.2014.DVDRip-eUDOXiU - 2.mp4\nFormat                           : MPEG-4\nFormat profile                   : Base Media\nCodec ID                         : isom\nFile size                        : 1.29 GiB\nDuration                         : 1h 51mn\nOverall bit rate                 : 1 666 Kbps\nEncoded date                     : UTC 2014-09-01 08:44:38\nTagged date                      : UTC 2014-09-01 08:44:38\n\nVideo\nID                               : 1\nFormat                           : MPEG-4 Visual\nFormat profile                   : Simple@L1\nFormat settings, BVOP            : No\nFormat settings, QPel            : No\nFormat settings, GMC             : No warppoints\nFormat settings, Matrix          : Default (H.263)\nCodec ID                         : 20\nDuration                         : 1h 51mn\nBit rate mode                    : Variable\nBit rate                         : 1 536 Kbps\nMaximum bit rate                 : 3 298 Kbps\nWidth                            : 856 pixels\nHeight                           : 480 pixels\nDisplay aspect ratio             : 16:9\nFrame rate mode                  : Constant\nFrame rate                       : 29.970 fps\nColor space                      : YUV\nChroma subsampling               : 4:2:0\nBit depth                        : 8 bits\nScan type                        : Progressive\nCompression mode                 : Lossy\nBits/(Pixel*Frame)               : 0.125\nStream size                      : 1.19 GiB (92%)\nWriting library                  : Lavc53.8.0\nEncoded date                     : UTC 2014-09-01 08:44:38\nTagged date                      : UTC 2014-09-01 08:45:57\n\nAudio\nID                               : 2\nFormat                           : AAC\nFormat/Info                      : Advanced Audio Codec\nFormat profile                   : LC\nCodec ID                         : 40\nDuration                         : 1h 51mn\nBit rate mode                    : Variable\nBit rate                         : 127 Kbps\nMaximum bit rate                 : 243 Kbps\nChannel(s)                       : 2 channels\nChannel positions                : Front: L R\nSampling rate                    : 44.1 KHz\nCompression mode                 : Lossy\nStream size                      : 101 MiB (8%)\nEncoded date                     : UTC 2014-09-01 08:45:39\nTagged date                      : UTC 2014-09-01 08:45:57\n","torrent":{"xt":"urn:btih:56a18ea021afc8f93ec1618920f0204989f1d095","amp;dn":"Throat+Fucks+5+XXX++All+Disc+%2A%2A%5BNEW%5D%2A%2A+01+September+2014+","amp;tr":["udp%3A%2F%2Ftracker.openbittorrent.com%3A80","udp%3A%2F%2Fopen.demonii.com%3A1337","udp%3A%2F%2Ftracker.coppersurfer.tk%3A6969","udp%3A%2F%2Fexodus.desync.com%3A6969"],"infoHash":"56a18ea021afc8f93ec1618920f0204989f1d095","infoHashBuffer":{"type":"Buffer","data":[86,161,142,160,33,175,200,249,62,193,97,137,32,240,32,73,137,241,208,149]},"announce":[],"urlList":[]}}